<svg width="18" height="20" viewBox="0 0 18 20" fill="none" xmlns="http://www.w3.org/2000/svg">
<path fill-rule="evenodd" clip-rule="evenodd" d="M9 0C7.88616 2.72392e-08 6.8718 0.600705 4.84308 1.80211L4.15692 2.20846C2.1282 3.40987 1.11384 4.01057 0.556922 5C0 5.98943 0 7.19084 0 9.59366V10.4063C0 12.8092 0 14.0106 0.556922 15C1.11384 15.9894 2.1282 16.5901 4.15692 17.7915L4.84308 18.1979C6.8718 19.3993 7.88616 20 9 20C10.1138 20 11.1282 19.3993 13.1569 18.1979L13.8431 17.7915C15.8718 16.5901 16.8862 15.9894 17.4431 15C18 14.0106 18 12.8092 18 10.4063V9.59366C18 7.19084 18 5.98943 17.4431 5C16.8862 4.01057 15.8718 3.40987 13.8431 2.20846L13.1569 1.80211C11.1282 0.600705 10.1138 -2.72392e-08 9 0ZM5.25 10C5.25 7.92893 6.92893 6.25 9 6.25C11.0711 6.25 12.75 7.92893 12.75 10C12.75 12.0711 11.0711 13.75 9 13.75C6.92893 13.75 5.25 12.0711 5.25 10Z" fill="currentColor" />
</svg>
